<svg width="57" height="58" viewBox="0 0 57 58" fill="none" xmlns="http://www.w3.org/2000/svg">
<path d="M41.4137 34.4922C40.7099 34.1391 37.2478 32.4376 36.6032 32.2007C35.9563 31.9661 35.4871 31.8499 35.0155 32.5561C34.5487 33.2599 33.198 34.8452 32.788 35.3144C32.3781 35.786 31.9657 35.8429 31.2619 35.4922C30.5581 35.1367 28.288 34.395 25.5984 31.9969C23.5059 30.1296 22.0912 27.8238 21.6813 27.1177C21.2713 26.4139 21.6386 26.0324 21.9893 25.6816C22.3069 25.3665 22.6955 24.8594 23.0462 24.4494C23.3993 24.0371 23.5154 23.7432 23.7524 23.2717C23.987 22.8025 23.8709 22.3925 23.6931 22.0394C23.5154 21.6863 22.1078 18.2195 21.5225 16.8095C20.949 15.4375 20.3685 15.6247 19.9372 15.601C19.4872 15.583 19.0368 15.5751 18.5865 15.5773C18.1173 15.5773 17.3542 15.7526 16.7097 16.4588C16.0651 17.1626 14.2452 18.8664 14.2452 22.3333C14.2452 25.7978 16.7689 29.1461 17.1196 29.6177C17.4727 30.0869 22.0865 37.2007 29.1506 40.2505C30.8307 40.9756 32.1411 41.4093 33.1648 41.7316C34.852 42.2695 36.3876 42.1937 37.5985 42.0112C38.9516 41.8098 41.7644 40.3074 42.3521 38.6628C42.9398 37.0182 42.9398 35.6083 42.7621 35.3144C42.5867 35.0206 42.1175 34.8452 41.4113 34.4922M28.5652 52.035H28.5558C24.3609 52.0353 20.2431 50.9075 16.6338 48.7696L15.7784 48.2624L6.91335 50.5895L9.27831 41.9448L8.72143 41.0586C6.37647 37.3246 5.13594 33.0032 5.14319 28.594C5.14556 15.6792 15.6551 5.17194 28.5747 5.17194C34.8307 5.17194 40.7123 7.61273 45.1341 12.0393C47.3159 14.2114 49.0451 16.7946 50.2219 19.6395C51.3986 22.4843 51.9995 25.5343 51.9897 28.6129C51.9825 41.5278 41.4753 52.035 28.5652 52.035ZM48.5015 8.67672C45.8905 6.04855 42.7839 3.96467 39.3618 2.54585C35.9396 1.12703 32.2699 0.401473 28.5652 0.41123C13.0319 0.41123 0.389586 13.0535 0.382477 28.5916C0.382477 33.5585 1.6787 38.4069 4.14555 42.6794L0.145508 57.2839L15.0864 53.3644C19.2182 55.6154 23.8482 56.7951 28.5534 56.7957H28.5652C44.0962 56.7957 56.7409 44.1534 56.748 28.6129C56.7595 24.9098 56.0365 21.2411 54.621 17.8191C53.2055 14.3971 51.1256 11.2897 48.5015 8.67672Z" fill="white"/>
</svg>
